# xmcd
#
# Track frame offsets:
#	150
#	19580
#	37951
#	55755
#	73550
#	90064
#	110847
#	128325
#	151022
#	167061
#	187929
#	209211
#	228524
#	252920
#	278853
#	298057
#
# Disc length: 4194 seconds
#
# Revision: 0
# Processed by: cddbd v1.5.1PL0 Copyright (c) Steve Scherf et al.
# Submitted via: dBpowerAMP V4.0
#
DISCID=d4106010
DTITLE=Evanescence  - Anywhere But Home
DYEAR=2004
DGENRE=AlternRock
TTITLE0=Broken - Amy Lee
TTITLE1=Haunted 
TTITLE2=Going Under 
TTITLE3=Taking Over Me 
TTITLE4=Everybody's Fool 
TTITLE5=Thoughtless
TTITLE6=My Last Breath 
TTITLE7=Farther Away 
TTITLE8=Breathe No More 
TTITLE9=My Immortal 
TTITLE10=Bring Me To Life 
TTITLE11=Tourniquet 
TTITLE12=Imaginary 
TTITLE13=Whisper 
TTITLE14=Missing (previously unreleased audio track - studio recording) 
TTITLE15=Hello 
EXTD=
EXTT0=
EXTT1=
EXTT2=
EXTT3=
EXTT4=
EXTT5=
EXTT6=
EXTT7=
EXTT8=
EXTT9=
EXTT10=
EXTT11=
EXTT12=
EXTT13=
EXTT14=
EXTT15=
PLAYORDER=
